<?xml version="1.0" encoding="UTF-8" standalone="no"?>
<!-- Created with Inkscape (http://www.inkscape.org/) -->

<svg
   width="48"
   height="48"
   viewBox="0 0 48 48"
   version="1.1"
   id="svg1"
   xml:space="preserve"
   inkscape:version="1.4.3 (0d15f75, 2025-12-25)"
   sodipodi:docname="bootstrap-play-reversed.svg"
   inkscape:export-filename="bootstrap-play-reversed.png"
   inkscape:export-xdpi="96"
   inkscape:export-ydpi="96"
   xmlns:inkscape="http://www.inkscape.org/namespaces/inkscape"
   xmlns:sodipodi="http://sodipodi.sourceforge.net/DTD/sodipodi-0.dtd"
   xmlns="http://www.w3.org/2000/svg"
   xmlns:svg="http://www.w3.org/2000/svg"><sodipodi:namedview
     id="namedview1"
     pagecolor="#ffffff"
     bordercolor="#000000"
     borderopacity="0.25"
     inkscape:showpageshadow="2"
     inkscape:pageopacity="0.0"
     inkscape:pagecheckerboard="0"
     inkscape:deskcolor="#d1d1d1"
     inkscape:document-units="px"
     showguides="true"
     inkscape:zoom="10"
     inkscape:cx="20.5"
     inkscape:cy="36.55"
     inkscape:window-width="1920"
     inkscape:window-height="1009"
     inkscape:window-x="1912"
     inkscape:window-y="-8"
     inkscape:window-maximized="1"
     inkscape:current-layer="layer1"><sodipodi:guide
       position="45.144981,48.416357"
       orientation="0,-1"
       id="guide1"
       inkscape:locked="false" /></sodipodi:namedview><defs
     id="defs1" /><g
     inkscape:label="Layer 1"
     inkscape:groupmode="layer"
     id="layer1"><path
       d="m 24,44.91875 a 21,20.86875 0 1 1 0,-41.7375 21,20.86875 0 0 1 0,41.7375 M 24,47.9 a 24,23.85 0 1 0 0,-47.7 24,23.85 0 0 0 0,47.7"
       id="path1"
       style="fill:#000000;stroke-width:2.99061" /><path
       d="m 30.688702,15.270219 a 1.5,1.490625 0 0 0 -1.56,0.113287 l -10.5,7.453125 a 1.5,1.490625 0 0 0 0,2.426738 l 10.5,7.453125 a 1.5,1.490625 0 0 0 2.373,-1.213369 v -14.90625 a 1.5,1.490625 0 0 0 -0.813,-1.326656"
       id="path2"
       style="fill:#000000;stroke-width:2.99061" /></g></svg>
